<svg xmlns="http://www.w3.org/2000/svg" viewBox="118 60 164 180" width="100%" height="100%">
  <defs>
    <!-- Tile Faccia Superiore (Top) -->
    <polygon id="top-tile" points="0,0 24,12 0,24 -24,12" />

    <!-- Tile Faccia Sinistra (Left) -->
    <polygon id="left-tile" points="0,0 24,12 24,36 0,24" />

    <!-- Tile Faccia Destra (Right) -->
    <polygon id="right-tile" points="0,0 24,-12 24,12 0,24" />

    <!-- Aura -->
    <radialGradient id="solve-glow" cx="50%" cy="50%" r="50%">
      <stop offset="0%" stop-color="#ffffff" stop-opacity="0.85" />
      <stop offset="35%" stop-color="#9fd3ff" stop-opacity="0.25" />
      <stop offset="100%" stop-color="#9fd3ff" stop-opacity="0" />
    </radialGradient>

    <!-- Highlight / Shading -->
    <linearGradient id="top-shine" x1="0%" y1="0%" x2="100%" y2="100%">
      <stop offset="0%" stop-color="#ffffff" stop-opacity="0.16"/>
      <stop offset="60%" stop-color="#ffffff" stop-opacity="0.04"/>
      <stop offset="100%" stop-color="#ffffff" stop-opacity="0"/>
    </linearGradient>

    <linearGradient id="left-shade" x1="0%" y1="0%" x2="100%" y2="100%">
      <stop offset="0%" stop-color="#000000" stop-opacity="0.10"/>
      <stop offset="100%" stop-color="#000000" stop-opacity="0.24"/>
    </linearGradient>

    <linearGradient id="right-shade" x1="0%" y1="0%" x2="100%" y2="100%">
      <stop offset="0%" stop-color="#000000" stop-opacity="0.04"/>
      <stop offset="100%" stop-color="#000000" stop-opacity="0.20"/>
    </linearGradient>

    <!-- Premium glow -->
    <filter id="outline-glow" x="-35%" y="-35%" width="170%" height="170%">
      <feGaussianBlur stdDeviation="1.8" />
    </filter>
  </defs>

  <style>
    :root {
      --w: #FFFFFF;
      --g: #009E60;
      --r: #C41E3A;
      --bg: #1A1A1A;
      --tile-stroke: rgba(0,0,0,0.22);
    }

    .tile {
      stroke: var(--tile-stroke);
      stroke-width: 0.9;
      stroke-linejoin: round;
      paint-order: stroke fill;
    }
  </style>

  <!-- Aura statica -->
  <g transform="translate(200,138)">
    <circle r="74" fill="url(#solve-glow)" opacity=".52" />
  </g>

  <g transform="translate(0, 20)">
    <!-- Premium outline glow (subtle, static) -->
    <polygon points="198,58 280,98 280,180 200,218 120,180 120,98"
             fill="none" stroke="#9fd3ff" stroke-width="3.6" stroke-linejoin="round"
             opacity=".22" filter="url(#outline-glow)" />

    <!-- Struttura interna del cubo -->
    <polygon points="198,58 280,98 280,180 200,218 120,180 120,98"
             fill="var(--bg)" stroke="#111" stroke-width="2.2" stroke-linejoin="round" />

    <!-- FACCIA SUPERIORE (Risolta: White) -->
    <use href="#top-tile" x="200" y="60" class="tile" fill="var(--w)" />
    <use href="#top-tile" x="226" y="73" class="tile" fill="var(--w)" />
    <use href="#top-tile" x="252" y="86" class="tile" fill="var(--w)" />

    <use href="#top-tile" x="174" y="73" class="tile" fill="var(--w)" />
    <use href="#top-tile" x="200" y="86" class="tile" fill="var(--w)" />
    <use href="#top-tile" x="226" y="99" class="tile" fill="var(--w)" />

    <use href="#top-tile" x="148" y="86" class="tile" fill="var(--w)" />
    <use href="#top-tile" x="174" y="99" class="tile" fill="var(--w)" />
    <use href="#top-tile" x="200" y="112" class="tile" fill="var(--w)" />

    <!-- FACCIA SINISTRA (Risolta: Green) -->
    <use href="#left-tile" x="122" y="99" class="tile" fill="var(--g)" />
    <use href="#left-tile" x="148" y="112" class="tile" fill="var(--g)" />
    <use href="#left-tile" x="174" y="125" class="tile" fill="var(--g)" />

    <use href="#left-tile" x="122" y="125" class="tile" fill="var(--g)" />
    <use href="#left-tile" x="148" y="138" class="tile" fill="var(--g)" />
    <use href="#left-tile" x="174" y="151" class="tile" fill="var(--g)" />

    <use href="#left-tile" x="122" y="151" class="tile" fill="var(--g)" />
    <use href="#left-tile" x="148" y="164" class="tile" fill="var(--g)" />
    <use href="#left-tile" x="174" y="177" class="tile" fill="var(--g)" />

    <!-- FACCIA DESTRA (Risolta: Red) -->
    <use href="#right-tile" x="200" y="138" class="tile" fill="#C41E3A" />
    <use href="#right-tile" x="226" y="125" class="tile" fill="#C41E3A" />
    <use href="#right-tile" x="252" y="112" class="tile" fill="#C41E3A" />

    <use href="#right-tile" x="200" y="164" class="tile" fill="#C41E3A" />
    <use href="#right-tile" x="226" y="151" class="tile" fill="#C41E3A" />
    <use href="#right-tile" x="252" y="138" class="tile" fill="#C41E3A" />

    <use href="#right-tile" x="200" y="190" class="tile" fill="#C41E3A" />
    <use href="#right-tile" x="226" y="177" class="tile" fill="#C41E3A" />
    <use href="#right-tile" x="252" y="164" class="tile" fill="#C41E3A" />

    <!-- Shading overlays facce -->
    <polygon points="200,60 278,99 200,138 122,99" fill="url(#top-shine)" opacity=".9" />
    <polygon points="122,99 200,138 200,216 122,177" fill="url(#left-shade)" opacity=".55" />
    <polygon points="200,138 278,99 278,177 200,216" fill="url(#right-shade)" opacity=".45" />

    <!-- Outline leggero “premium” -->
    <polygon points="198,58 280,98 280,180 200,218 120,180 120,98"
             fill="none" stroke="#9fd3ff" stroke-width="1.4" opacity=".28" />
  </g>
</svg>
